{"title":"Sherlock Holmes[2009]BRrip[Ac3-5.1]-=[CaLvIn]=-","uid":7255883,"size":956500968,"categoryP":"video","categoryS":"movies","magnet":"?xt=urn:btih:d11ad241b29f5dba6a6b4319f96a83c97f040813&amp;dn=Sherlock+Holmes%5B2009%5DBRrip%5BAc3-5.1%5D-%3D%5BCaLvIn%5D%3D-&amp;tr=udp%3A%2F%2Ftracker.openbittorrent.com%3A80&amp;tr=udp%3A%2F%2Fopen.demonii.com%3A1337&amp;tr=udp%3A%2F%2Ftracker.coppersurfer.tk%3A6969&amp;tr=udp%3A%2F%2Fexodus.desync.com%3A6969","seeders":1,"leechers":0,"uploader":"rhythmtheguru","files":15,"time":1336583978,"description":"General\nComplete name            : Sherlock Holmes[2009]BRrip[Ac3-5.1]-=[CaLvIn]=-\nImdb                             : http://www.imdb.com/title/tt0988045\nFormat                           : AVI\nFormat/Info                      : Audio Video Interleave\nFile size                        : 898 MiB\nDuration                         : 2h 8mn\nOverall bit rate                 : 978 Kbps\nWriting application              : VirtualDubMod 1.5.10.3 | \n\nVideo\nID                               : 0\nFormat                           : MPEG-4 Visual\nFormat profile                   : Advanced Simple@L5\nFormat settings, BVOP            : 2\nFormat settings, QPel            : No\nFormat settings, GMC             : No warppoints\nFormat settings, Matrix          : Default (H.263)\nCodec ID                         : XVID\nCodec ID/Hint                    : XviD\nDuration                         : 2h 8mn\nBit rate                         : 777 Kbps\nWidth                            : 720 pixels\nHeight                           : 400 pixels\nDisplay aspect ratio             : 16:9\nFrame rate                       : 23.976 fps\nColor space                      : YUV\nChroma subsampling               : 4:2:0\nBit depth                        : 8 bits\nScan type                        : Progressive\nCompression mode                 : Lossy\nBits/(Pixel*Frame)               : 0.112\nStream size                      : 713 MiB (79%)\nWriting library                  : XviD 1.2.1 (UTC 2008-12-04)\n\nAudio\nID                               : 1\nFormat                           : AC-3\nFormat/Info                      : Audio Coding 3\nMode extension                   : CM (complete main)\nCodec ID                         : 2000\nDuration                         : 2h 8mn\nBit rate mode                    : Constant\nBit rate                         : 192 Kbps\nChannel(s)                       : 6 channels\nChannel positions                : Front: L C R, Side: L R, LFE\nSampling rate                    : 48.0 KHz\nBit depth                        : 16 bits\nCompression mode                 : Lossy\nStream size                      : 176 MiB (20%)\nAlignment                        : Split accross interleaves\nInterleave, duration             : 42 ms (1.00 video frame)\nInterleave, preload duration     : 500 ms\n\nScreensShots\n &lt;a href=&quot;\nhttp://img826.imageshack.us/img826/9236/16407361.png&quot; rel=&quot;nofollow&quot; target=&quot;_NEW&quot;&gt;\nhttp://img826.imageshack.us/img826/9236/16407361.png&lt;/a&gt; &lt;a href=&quot;\nhttp://img526.imageshack.us/img526/8571/32979664.png&quot; rel=&quot;nofollow&quot; target=&quot;_NEW&quot;&gt;\nhttp://img526.imageshack.us/img526/8571/32979664.png&lt;/a&gt; &lt;a href=&quot;\nhttp://img820.imageshack.us/img820/8393/78787097.png&quot; rel=&quot;nofollow&quot; target=&quot;_NEW&quot;&gt;\nhttp://img820.imageshack.us/img820/8393/78787097.png&lt;/a&gt; &lt;a href=&quot;\nhttp://img827.imageshack.us/img827/5485/45557065.png&quot; rel=&quot;nofollow&quot; target=&quot;_NEW&quot;&gt;\nhttp://img827.imageshack.us/img827/5485/45557065.png&lt;/a&gt; &lt;a href=&quot;\nhttp://img100.imageshack.us/img100/6103/36066168.png&quot; rel=&quot;nofollow&quot; target=&quot;_NEW&quot;&gt;\nhttp://img100.imageshack.us/img100/6103/36066168.png&lt;/a&gt; &lt;a href=&quot;\nhttp://img40.imageshack.us/img40/4963/46470084.png&quot; rel=&quot;nofollow&quot; target=&quot;_NEW&quot;&gt;\nhttp://img40.imageshack.us/img40/4963/46470084.png&lt;/a&gt; &lt;a href=&quot;\nhttp://img651.imageshack.us/img651/8956/50462360.png&quot; rel=&quot;nofollow&quot; target=&quot;_NEW&quot;&gt;\nhttp://img651.imageshack.us/img651/8956/50462360.png&lt;/a&gt; &lt;a href=&quot;\nhttp://img827.imageshack.us/img827/4159/17532604.png&quot; rel=&quot;nofollow&quot; target=&quot;_NEW&quot;&gt;\nhttp://img827.imageshack.us/img827/4159/17532604.png&lt;/a&gt; &lt;a href=&quot;\nhttp://img718.imageshack.us/img718/1687/83091548.png&quot; rel=&quot;nofollow&quot; target=&quot;_NEW&quot;&gt;\nhttp://img718.imageshack.us/img718/1687/83091548.png&lt;/a&gt; &lt;a href=&quot;\nhttp://img594.imageshack.us/img594/9330/43005020.png&quot; rel=&quot;nofollow&quot; target=&quot;_NEW&quot;&gt;\nhttp://img594.imageshack.us/img594/9330/43005020.png&lt;/a&gt;","torrent":{"xt":"urn:btih:d11ad241b29f5dba6a6b4319f96a83c97f040813","amp;dn":"Sherlock+Holmes%5B2009%5DBRrip%5BAc3-5.1%5D-%3D%5BCaLvIn%5D%3D-","amp;tr":["udp%3A%2F%2Ftracker.openbittorrent.com%3A80","udp%3A%2F%2Fopen.demonii.com%3A1337","udp%3A%2F%2Ftracker.coppersurfer.tk%3A6969","udp%3A%2F%2Fexodus.desync.com%3A6969"],"infoHash":"d11ad241b29f5dba6a6b4319f96a83c97f040813","infoHashBuffer":{"type":"Buffer","data":[209,26,210,65,178,159,93,186,106,107,67,25,249,106,131,201,127,4,8,19]},"announce":[],"urlList":[]}}